<mxfile host="65bd71144e">
    <diagram id="QWieUG3kaPX-v-oHebf9" name="Page-1">
        <mxGraphModel dx="479" dy="409" grid="1" gridSize="10" guides="1" tooltips="1" connect="1" arrows="1" fold="1" page="1" pageScale="1" pageWidth="827" pageHeight="1169" math="0" shadow="0">
            <root>
                <mxCell id="0"/>
                <mxCell id="1" parent="0"/>
                <mxCell id="4" value="" style="edgeStyle=none;html=1;fontFamily=Comic Sans MS;fontSize=27;" parent="1" source="2" target="3" edge="1">
                    <mxGeometry relative="1" as="geometry"/>
                </mxCell>
                <mxCell id="2" value="Inicio" style="ellipse;whiteSpace=wrap;html=1;fillColor=#d80073;fontColor=#ffffff;strokeColor=#A50040;fontFamily=Comic Sans MS;fontSize=27;" parent="1" vertex="1">
                    <mxGeometry x="270" y="180" width="120" height="80" as="geometry"/>
                </mxCell>
                <mxCell id="8" value="" style="edgeStyle=none;html=1;fontFamily=Comic Sans MS;fontSize=27;" parent="1" source="3" target="7" edge="1">
                    <mxGeometry relative="1" as="geometry"/>
                </mxCell>
                <mxCell id="3" value="C" style="shape=parallelogram;perimeter=parallelogramPerimeter;whiteSpace=wrap;html=1;fixedSize=1;fontSize=27;fontFamily=Comic Sans MS;fillColor=#60a917;strokeColor=#2D7600;fontColor=#ffffff;" parent="1" vertex="1">
                    <mxGeometry x="270" y="350" width="120" height="60" as="geometry"/>
                </mxCell>
                <mxCell id="10" value="" style="edgeStyle=none;html=1;fontFamily=Comic Sans MS;fontSize=24;" parent="1" source="7" target="9" edge="1">
                    <mxGeometry relative="1" as="geometry"/>
                </mxCell>
                <mxCell id="7" value="D=2*C&lt;br style=&quot;font-size: 24px;&quot;&gt;N=0" style="whiteSpace=wrap;html=1;fontSize=24;fontFamily=Comic Sans MS;fillColor=#1ba1e2;strokeColor=#006EAF;fontColor=#ffffff;" parent="1" vertex="1">
                    <mxGeometry x="270" y="490" width="120" height="60" as="geometry"/>
                </mxCell>
                <mxCell id="12" value="" style="edgeStyle=none;html=1;fontFamily=Comic Sans MS;fontSize=24;" parent="1" source="9" target="11" edge="1">
                    <mxGeometry relative="1" as="geometry"/>
                </mxCell>
                <mxCell id="15" value="" style="edgeStyle=none;html=1;fontFamily=Comic Sans MS;fontSize=24;" parent="1" source="9" target="14" edge="1">
                    <mxGeometry relative="1" as="geometry">
                        <Array as="points">
                            <mxPoint x="530" y="660"/>
                        </Array>
                    </mxGeometry>
                </mxCell>
                <mxCell id="9" value="C&amp;lt;D" style="rhombus;whiteSpace=wrap;html=1;fontSize=24;fontFamily=Comic Sans MS;fillColor=#0050ef;strokeColor=#001DBC;fontColor=#ffffff;" parent="1" vertex="1">
                    <mxGeometry x="290" y="620" width="80" height="80" as="geometry"/>
                </mxCell>
                <mxCell id="13" style="edgeStyle=none;html=1;entryX=0.5;entryY=0;entryDx=0;entryDy=0;fontFamily=Comic Sans MS;fontSize=24;exitX=0.5;exitY=1;exitDx=0;exitDy=0;" parent="1" source="11" target="9" edge="1">
                    <mxGeometry relative="1" as="geometry">
                        <Array as="points">
                            <mxPoint x="330" y="920"/>
                            <mxPoint x="180" y="920"/>
                            <mxPoint x="180" y="620"/>
                        </Array>
                    </mxGeometry>
                </mxCell>
                <mxCell id="11" value="C=C+0.05*C&lt;br&gt;N=N+1" style="whiteSpace=wrap;html=1;fontSize=24;fontFamily=Comic Sans MS;fillColor=#6a00ff;strokeColor=#3700CC;fontColor=#ffffff;" parent="1" vertex="1">
                    <mxGeometry x="250" y="790" width="160" height="80" as="geometry"/>
                </mxCell>
                <mxCell id="17" value="" style="edgeStyle=none;html=1;fontFamily=Comic Sans MS;fontSize=34;" parent="1" source="14" target="16" edge="1">
                    <mxGeometry relative="1" as="geometry"/>
                </mxCell>
                <mxCell id="14" value="N" style="shape=document;whiteSpace=wrap;html=1;boundedLbl=1;fontSize=34;fontFamily=Comic Sans MS;fillColor=#e51400;strokeColor=#B20000;fontColor=#ffffff;" parent="1" vertex="1">
                    <mxGeometry x="470" y="710" width="120" height="80" as="geometry"/>
                </mxCell>
                <mxCell id="16" value="Fin" style="ellipse;whiteSpace=wrap;html=1;fontSize=34;fontFamily=Comic Sans MS;fillColor=#f0a30a;strokeColor=#BD7000;fontColor=#000000;" parent="1" vertex="1">
                    <mxGeometry x="470" y="880" width="120" height="60" as="geometry"/>
                </mxCell>
            </root>
        </mxGraphModel>
    </diagram>
</mxfile>